<svg width="30" height="30" viewBox="0 0 30 30" fill="none" xmlns="http://www.w3.org/2000/svg">
<rect width="30" height="30" fill="white"/>
<path fill-rule="evenodd" clip-rule="evenodd" d="M14 9.5C14 7.01472 16.0147 5 18.5 5C20.9853 5 23 7.01472 23 9.5V10.5C23 12.9853 20.9853 15 18.5 15C16.0147 15 14 12.9853 14 10.5V9.5ZM18.5 7C17.1193 7 16 8.11929 16 9.5V10.5C16 11.8807 17.1193 13 18.5 13C19.8807 13 21 11.8807 21 10.5V9.5C21 8.11929 19.8807 7 18.5 7Z" fill="#716B67"/>
<path d="M7 10C7 9.44772 7.44772 9 8 9C8.55228 9 9 9.44772 9 10V13H12C12.5523 13 13 13.4477 13 14C13 14.5523 12.5523 15 12 15H9V18C9 18.5523 8.55228 19 8 19C7.44772 19 7 18.5523 7 18V15H4C3.44772 15 3 14.5523 3 14C3 13.4477 3.44772 13 4 13H7V10Z" fill="#716B67"/>
<path fill-rule="evenodd" clip-rule="evenodd" d="M15.2629 16C13.477 16 11.9075 17.1839 11.4168 18.9011L10.7669 21.1758C10.2194 23.0923 11.6583 25 13.6515 25H23.3486C25.3417 25 26.7807 23.0923 26.2331 21.1758L25.5832 18.9011C25.0926 17.1839 23.523 16 21.7371 16H15.2629ZM13.3399 19.4506C13.5852 18.592 14.37 18 15.2629 18H21.7371C22.6301 18 23.4149 18.592 23.6602 19.4506L24.3101 21.7253C24.4926 22.3641 24.0129 23 23.3486 23H13.6515C12.9871 23 12.5074 22.3641 12.69 21.7253L13.3399 19.4506Z" fill="#716B67"/>
<rect x="1" y="1" width="28" height="28" rx="3" stroke="#716B67" stroke-width="2"/>
</svg>
