<?xml version="1.0" encoding="UTF-8"?>
<svg width="40px" height="40px" viewBox="0 0 40 40" version="1.1" xmlns="http://www.w3.org/2000/svg" xmlns:xlink="http://www.w3.org/1999/xlink">
    <!-- Generator: Sketch 55.2 (78181) - https://sketchapp.com -->
    <title>automations-large</title>
    <desc>Created with Sketch.</desc>
    <g id="automations-large" stroke="none" stroke-width="1" fill="none" fill-rule="evenodd">
        <path d="M30.9740998,15.6195289 C30.4878291,15.3576908 29.881367,15.5396294 29.6195289,16.0259002 C29.3576908,16.5121709 29.5396294,17.118633 30.0259002,17.3804711 L36.5259002,20.8804711 C37.1921309,21.2392107 38,20.7566752 38,20 C38,10.0588745 29.9411255,2 20,2 C13.6929198,2 7.94737482,5.27094257 4.68734587,10.533895 C4.39651857,11.0034032 4.54136804,11.6197769 5.01087622,11.9106042 C5.48038439,12.2014315 6.09675808,12.056582 6.38758538,11.5870738 C9.28667718,6.90681407 14.3926155,4 20,4 C28.2542244,4 35.0485879,10.2504077 35.9082421,18.2763747 L30.9740998,15.6195289 Z" id="Path" fill="#4E4E4E" fill-rule="nonzero"></path>
        <path d="M28.4366342,32.6195289 C27.9503634,32.3576908 27.3439014,32.5396294 27.0820633,33.0259002 C26.8202252,33.5121709 27.0021638,34.118633 27.4884346,34.3804711 L33.9884346,37.8804711 C34.6546652,38.2392107 35.4625344,37.7566752 35.4625344,37 C35.4625344,27.0588745 27.4036599,19 17.4625344,19 C11.1554541,19 5.40990919,22.2709426 2.14988025,27.533895 C1.85905295,28.0034032 2.00390242,28.6197769 2.47341059,28.9106042 C2.94291877,29.2014315 3.55929245,29.056582 3.85011975,28.5870738 C6.74921156,23.9068141 11.8551498,21 17.4625344,21 C25.7167588,21 32.5111222,27.2504077 33.3707764,35.2763747 L28.4366342,32.6195289 Z" id="Path" fill="#4E4E4E" fill-rule="nonzero" transform="translate(18.731198, 28.500697) rotate(-180.000000) translate(-18.731198, -28.500697) "></path>
    </g>
</svg>