<svg width="30" height="30" viewBox="0 0 30 30" fill="none" xmlns="http://www.w3.org/2000/svg">
<path fill-rule="evenodd" clip-rule="evenodd" d="M5 6C5 5.44772 5.44772 5 6 5H20C20.5523 5 21 5.44772 21 6C21 6.55228 20.5523 7 20 7H6C5.44772 7 5 6.55228 5 6Z" fill="#716B67"/>
<path fill-rule="evenodd" clip-rule="evenodd" d="M5 11C5 10.4477 5.44772 10 6 10H14C14.5523 10 15 10.4477 15 11C15 11.5523 14.5523 12 14 12H6C5.44772 12 5 11.5523 5 11Z" fill="#716B67"/>
<path fill-rule="evenodd" clip-rule="evenodd" d="M4 2C2.89543 2 2 2.89543 2 4V26C2 27.1046 2.89543 28 4 28H26C27.1006 28 28 27.0994 28 25.9908V4.00921C28 2.90065 27.1006 2 26 2H4ZM0 4C0 1.79086 1.79086 0 4 0H26C28.2131 0 30 1.80406 30 4.00921V25.9908C30 28.1959 28.2131 30 26 30H4C1.79086 30 0 28.2091 0 26V4Z" fill="#716B67"/>
<path fill-rule="evenodd" clip-rule="evenodd" d="M4 17.5C4 16.1193 5.11929 15 6.5 15H23.5C24.8807 15 26 16.1193 26 17.5V23.5C26 24.8807 24.8807 26 23.5 26H6.5C5.11929 26 4 24.8807 4 23.5V17.5ZM6.5 17C6.22386 17 6 17.2239 6 17.5V23.5C6 23.7761 6.22386 24 6.5 24H23.5C23.7761 24 24 23.7761 24 23.5V17.5C24 17.2239 23.7761 17 23.5 17H6.5Z" fill="#716B67"/>
</svg>
