<svg width="30" height="30" viewBox="0 0 30 30" fill="none" xmlns="http://www.w3.org/2000/svg">
<path fill-rule="evenodd" clip-rule="evenodd" d="M16 11C16 10.4477 16.4477 10 17 10H23C23.5523 10 24 10.4477 24 11C24 11.5523 23.5523 12 23 12H17C16.4477 12 16 11.5523 16 11Z" fill="#716B67"/>
<path fill-rule="evenodd" clip-rule="evenodd" d="M16 20C16 19.4477 16.4477 19 17 19H23C23.5523 19 24 19.4477 24 20C24 20.5523 23.5523 21 23 21H17C16.4477 21 16 20.5523 16 20Z" fill="#716B67"/>
<path fill-rule="evenodd" clip-rule="evenodd" d="M13.6508 7.24076C14.0701 7.60018 14.1187 8.23148 13.7593 8.65081L9.75926 13.6508C9.57798 13.8623 9.31672 13.9886 9.03838 13.9993C8.76004 14.01 8.48985 13.9041 8.29289 13.7071L6.29289 11.7071C5.90237 11.3166 5.90237 10.6834 6.29289 10.2929C6.68342 9.90239 7.31658 9.90239 7.70711 10.2929L8.94352 11.5293L12.2407 7.34923C12.6002 6.9299 13.2315 6.88134 13.6508 7.24076Z" fill="#716B67"/>
<path fill-rule="evenodd" clip-rule="evenodd" d="M13.6508 16.2408C14.0701 16.6002 14.1187 17.2315 13.7593 17.6508L9.75926 22.6508C9.57798 22.8623 9.31672 22.9886 9.03838 22.9993C8.76004 23.01 8.48985 22.9041 8.29289 22.7071L6.29289 20.7071C5.90237 20.3166 5.90237 19.6834 6.29289 19.2929C6.68342 18.9024 7.31658 18.9024 7.70711 19.2929L8.94352 20.5293L12.2407 16.3492C12.6002 15.9299 13.2315 15.8813 13.6508 16.2408Z" fill="#716B67"/>
<path fill-rule="evenodd" clip-rule="evenodd" d="M4 2C2.89543 2 2 2.89543 2 4V26C2 27.1046 2.89543 28 4 28H26C27.1006 28 28 27.0994 28 25.9908V4.00921C28 2.90065 27.1006 2 26 2H4ZM0 4C0 1.79086 1.79086 0 4 0H26C28.2131 0 30 1.80406 30 4.00921V25.9908C30 28.1959 28.2131 30 26 30H4C1.79086 30 0 28.2091 0 26V4Z" fill="#716B67"/>
</svg>
