<svg width="30" height="30" viewBox="0 0 30 30" fill="none" xmlns="http://www.w3.org/2000/svg">
<g clip-path="url(#clip0)">
<path fill-rule="evenodd" clip-rule="evenodd" d="M7 3H26C27.1046 3 28 3.89543 28 5V24C28 25.1046 27.1046 26 26 26H7C5.89543 26 5 25.1046 5 24H3C3 26.2091 4.79086 28 7 28H26C28.2091 28 30 26.2091 30 24V5C30 2.79086 28.2091 1 26 1H7C4.79086 1 3 2.79086 3 5H5C5 3.89543 5.89543 3 7 3Z" fill="#716B67"/>
<path fill-rule="evenodd" clip-rule="evenodd" d="M10 5.98967L9.73778 6.13787L7.4277 7.44505L6.09965 8.19565C5.79534 8.36765 5.42182 8.36761 5.11755 8.19556L3.78995 7.4449L1.48173 6.13821C1.00714 5.86954 0.402321 6.03248 0.130834 6.50215C-0.140653 6.97181 0.0239975 7.57035 0.49859 7.83901L2.80725 9.14595L4.13528 9.89686C5.04811 10.413 6.16867 10.4131 7.0816 9.89713L8.41008 9.14629L10 8.24662V5.98967ZM10 11.8476L9.73778 11.9958L7.4277 13.303L6.09965 14.0536C5.79534 14.2256 5.42182 14.2256 5.11755 14.0535L3.78995 13.3029L1.48173 11.9962C1.00714 11.7275 0.402321 11.8905 0.130834 12.3601C-0.140653 12.8298 0.0239975 13.4283 0.49859 13.697L2.80725 15.0039L4.13528 15.7548C5.04811 16.271 6.16867 16.2711 7.0816 15.7551L8.41008 15.0043L10 14.1046V11.8476ZM10 17.7056L9.73778 17.8538L7.4277 19.161L6.09965 19.9116C5.79534 20.0836 5.42182 20.0836 5.11755 19.9115L3.78995 19.1608L1.48173 17.8542C1.00714 17.5855 0.402321 17.7484 0.130834 18.2181C-0.140653 18.6878 0.0239975 19.2863 0.49859 19.555L2.80725 20.8619L4.13528 21.6128C5.04811 22.129 6.16867 22.1291 7.0816 21.6131L8.41008 20.8622L10 19.9626V17.7056Z" fill="#241C15" fill-opacity="0.65"/>
<path fill-rule="evenodd" clip-rule="evenodd" d="M19 6C19 6.55228 18.5523 7 18 7C17.4477 7 17 6.55228 17 6H15V8C15.5523 8 16 8.44772 16 9C16 9.55228 15.5523 10 15 10V12C15.5523 12 16 12.4477 16 13C16 13.5523 15.5523 14 15 14V16H17C17 15.4477 17.4477 15 18 15C18.5523 15 19 15.4477 19 16H21C21 15.4477 21.4477 15 22 15C22.5523 15 23 15.4477 23 16H25V14C24.4477 14 24 13.5523 24 13C24 12.4477 24.4477 12 25 12V10C24.4477 10 24 9.55228 24 9C24 8.44772 24.4477 8 25 8V6H23C23 6.55228 22.5523 7 22 7C21.4477 7 21 6.55228 21 6H19ZM18 9H22V13H18V9Z" fill="#241C15" fill-opacity="0.65"/>
</g>
<defs>
<clipPath id="clip0">
<rect width="30" height="30" fill="white"/>
</clipPath>
</defs>
</svg>
