<svg width="30" height="30" viewBox="0 0 30 30" fill="none" xmlns="http://www.w3.org/2000/svg">
<path fill-rule="evenodd" clip-rule="evenodd" d="M6 4C6 2.89543 6.89543 2 8 2H22C23.1046 2 24 2.89543 24 4V16.382L15.2236 20.7701C15.0828 20.8405 14.9172 20.8405 14.7764 20.7701L6 16.382V4ZM4 15.382V10.162L2.66797 11.3513C2.24298 11.7308 2 12.2735 2 12.8432V14.382L4 15.382ZM4 7.48083V4C4 1.79086 5.79086 0 8 0H22C24.2091 0 26 1.79086 26 4V7.48083L28.6641 9.85946C29.5158 10.6199 30 11.7127 30 12.8498V25.9981C30 28.2064 28.21 30 26 30H4C1.79086 30 0 28.2091 0 26V12.8432C0 11.7037 0.485967 10.6184 1.33594 9.85946L4 7.48083ZM26 10.162V15.382L28 14.382V12.8498C28 12.2777 27.7553 11.7292 27.332 11.3513L26 10.162ZM10 7C9.44771 7 9 7.44772 9 8C9 8.55229 9.44771 9 10 9H20C20.5523 9 21 8.55229 21 8C21 7.44772 20.5523 7 20 7H10ZM2 26V16.618L13.882 22.559C14.5858 22.9109 15.4142 22.9109 16.118 22.559L28 16.618V25.9981C28 27.1035 27.1038 28 26 28H4C2.89543 28 2 27.1046 2 26ZM9 13C9 12.4477 9.44771 12 10 12H16C16.5523 12 17 12.4477 17 13C17 13.5523 16.5523 14 16 14H10C9.44771 14 9 13.5523 9 13Z" fill="#241C15" fill-opacity="0.65"/>
</svg>
