<svg width="30" height="30" viewBox="0 0 30 30" fill="none" xmlns="http://www.w3.org/2000/svg">
<path fill-rule="evenodd" clip-rule="evenodd" d="M7 8C7 7.44772 7.44772 7 8 7H22C22.5523 7 23 7.44772 23 8C23 8.55229 22.5523 9 22 9H8C7.44772 9 7 8.55229 7 8Z" fill="#716B67"/>
<path fill-rule="evenodd" clip-rule="evenodd" d="M7 13C7 12.4477 7.44772 12 8 12H22C22.5523 12 23 12.4477 23 13C23 13.5523 22.5523 14 22 14H8C7.44772 14 7 13.5523 7 13Z" fill="#716B67"/>
<path fill-rule="evenodd" clip-rule="evenodd" d="M4 2C2.89543 2 2 2.89543 2 4V26C2 27.1046 2.89543 28 4 28H26C27.1006 28 28 27.0994 28 25.9908V4.00921C28 2.90065 27.1006 2 26 2H4ZM0 4C0 1.79086 1.79086 0 4 0H26C28.2131 0 30 1.80406 30 4.00921V25.9908C30 28.1959 28.2131 30 26 30H4C1.79086 30 0 28.2091 0 26V4Z" fill="#716B67"/>
<path fill-rule="evenodd" clip-rule="evenodd" d="M7 20.5C7 18.567 8.567 17 10.5 17H19.5C21.433 17 23 18.567 23 20.5C23 22.433 21.433 24 19.5 24H10.5C8.567 24 7 22.433 7 20.5ZM10.5 19C9.67157 19 9 19.6716 9 20.5C9 21.3284 9.67157 22 10.5 22H19.5C20.3284 22 21 21.3284 21 20.5C21 19.6716 20.3284 19 19.5 19H10.5Z" fill="#716B67"/>
</svg>
