<svg width="30" height="30" viewBox="0 0 30 30" fill="none" xmlns="http://www.w3.org/2000/svg">
<path fill-rule="evenodd" clip-rule="evenodd" d="M4 2C2.89543 2 2 2.89543 2 4V26C2 27.1046 2.89543 28 4 28H26C27.1006 28 28 27.0994 28 25.9908V4.00921C28 2.90065 27.1006 2 26 2H4ZM0 4C0 1.79086 1.79086 0 4 0H26C28.2131 0 30 1.80406 30 4.00921V25.9908C30 28.1959 28.2131 30 26 30H4C1.79086 30 0 28.2091 0 26V4Z" fill="#716B67"/>
<path fill-rule="evenodd" clip-rule="evenodd" d="M8.57287 12.8268C8.11057 13.3405 7.77352 14.2089 7.98847 15.6117C8.09233 16.2895 8.46381 17.0462 9.06651 17.8473C9.66297 18.6402 10.4397 19.4159 11.2636 20.1266C12.7112 21.3756 14.2338 22.3646 15 22.8356C15.7662 22.3646 17.2888 21.3756 18.7364 20.1266C19.5603 19.4159 20.3371 18.6402 20.9335 17.8473C21.5362 17.0462 21.9077 16.2895 22.0115 15.6117C22.2265 14.2089 21.8894 13.3405 21.4271 12.8268C20.9489 12.2954 20.2082 12 19.3636 12C18.6955 12 17.9666 12.2565 17.2927 12.6667C16.6185 13.0771 16.0895 13.5869 15.8159 13.9729C15.6284 14.2375 15.3243 14.3947 15 14.3947C14.6757 14.3947 14.3716 14.2375 14.1841 13.9729C13.9105 13.5869 13.3815 13.0771 12.7073 12.6667C12.0334 12.2565 11.3045 12 10.6364 12C9.79184 12 9.05112 12.2954 8.57287 12.8268ZM7.08623 11.489C8.01707 10.4546 9.34454 10 10.6364 10C11.7864 10 12.8757 10.4277 13.7473 10.9583C14.2087 11.2392 14.6343 11.5642 15 11.9028C15.3657 11.5642 15.7913 11.2392 16.2528 10.9583C17.1244 10.4277 18.2136 10 19.3636 10C20.6555 10 21.9829 10.4546 22.9138 11.489C23.8606 12.541 24.2735 14.0543 23.9885 15.9146C23.815 17.0468 23.237 18.1122 22.5318 19.0497C21.8202 19.9955 20.9305 20.8751 20.0429 21.6409C18.2679 23.1724 16.4103 24.3257 15.7524 24.7182C15.2859 24.9965 14.7141 24.9965 14.2476 24.7182C13.5897 24.3256 11.7321 23.1724 9.9571 21.6409C9.06949 20.8751 8.17977 19.9955 7.46826 19.0497C6.76299 18.1122 6.18503 17.0468 6.01154 15.9146C5.72649 14.0543 6.13944 12.541 7.08623 11.489Z" fill="#716B67"/>
<path d="M4 5.5C4 4.67157 4.67157 4 5.5 4C6.32843 4 7 4.67157 7 5.5C7 6.32843 6.32843 7 5.5 7C4.67157 7 4 6.32843 4 5.5Z" fill="#716B67"/>
<path d="M8 5.5C8 4.67157 8.67157 4 9.5 4C10.3284 4 11 4.67157 11 5.5C11 6.32843 10.3284 7 9.5 7C8.67157 7 8 6.32843 8 5.5Z" fill="#716B67"/>
<path d="M12 5.5C12 4.67157 12.6716 4 13.5 4C14.3284 4 15 4.67157 15 5.5C15 6.32843 14.3284 7 13.5 7C12.6716 7 12 6.32843 12 5.5Z" fill="#716B67"/>
</svg>
