<svg width="30" height="30" viewBox="0 0 30 30" fill="none" xmlns="http://www.w3.org/2000/svg">
<path d="M14 1C14 0.447715 13.5523 0 13 0C12.4477 0 12 0.447715 12 1V6C12 6.55228 12.4477 7 13 7C13.5523 7 14 6.55228 14 6V1Z" fill="#241C15" fill-opacity="0.65"/>
<path fill-rule="evenodd" clip-rule="evenodd" d="M14.0396 9.95912C12.124 9.32058 10.2809 11.0991 10.8507 13.0362L14.7474 26.285C15.1021 27.4912 16.6943 27.752 17.4153 26.722L19.6017 23.5985L24.4655 28.9487L29.4142 24L24.5696 19.1554L27.7041 17.0658C28.7427 16.3734 28.5305 14.7894 27.3464 14.3947L14.0396 9.95912ZM12.7694 12.4719C12.6554 12.0845 13.0241 11.7288 13.4072 11.8565L25.7441 15.9688L21.4304 18.8446L26.5858 24L24.5345 26.0513L19.3983 20.4015L16.3728 24.7236L12.7694 12.4719Z" fill="#241C15" fill-opacity="0.65"/>
<path d="M3.46446 2.46446C3.85498 2.07394 4.48815 2.07394 4.87867 2.46446L8.7071 6.29289C9.09762 6.68342 9.09762 7.31658 8.7071 7.70711C8.31657 8.09763 7.68341 8.09763 7.29288 7.70711L3.46446 3.87867C3.07393 3.48815 3.07393 2.85498 3.46446 2.46446Z" fill="#241C15" fill-opacity="0.65"/>
<path d="M2 10C1.44772 10 1 10.4477 1 11C1 11.5523 1.44772 12 2 12H7C7.55228 12 8 11.5523 8 11C8 10.4477 7.55228 10 7 10H2Z" fill="#241C15" fill-opacity="0.65"/>
<path d="M8.70711 14.2929C9.09763 14.6834 9.09763 15.3166 8.70711 15.7071L4.70711 19.7071C4.31658 20.0976 3.68342 20.0976 3.29289 19.7071C2.90237 19.3166 2.90237 18.6834 3.29289 18.2929L7.29289 14.2929C7.68342 13.9024 8.31658 13.9024 8.70711 14.2929Z" fill="#241C15" fill-opacity="0.65"/>
<path d="M22.7071 3.70711C23.0976 3.31658 23.0976 2.68342 22.7071 2.29289C22.3166 1.90237 21.6834 1.90237 21.2929 2.29289L17.2929 6.29289C16.9024 6.68342 16.9024 7.31658 17.2929 7.70711C17.6834 8.09763 18.3166 8.09763 18.7071 7.70711L22.7071 3.70711Z" fill="#241C15" fill-opacity="0.65"/>
</svg>
