<svg width="16" height="16" viewBox="0 0 16 16" xmlns="http://www.w3.org/2000/svg"><title>83571E58-3118-4DE5-A930-74BBE0F367F1</title><g fill="none" fill-rule="evenodd"><path fill="none" d="M0 0h16v16H0z"/><path d="M7.971 11.597c.826.001 1.63-.267 2.29-.763l1.217 1.507a5.797 5.797 0 0 1-9.236-4.608H0l3.208-3.865 3.198 3.865h-2.3a3.865 3.865 0 0 0 3.865 3.864zm5.797-3.864H16l-3.198 3.864-3.188-3.864h2.222A3.865 3.865 0 0 0 7.97 3.868c-.8.016-1.573.283-2.213.763L4.541 3.124a5.797 5.797 0 0 1 9.227 4.609z" fill-rule="nonzero" fill="#B8B8B8"/></g></svg>