<svg width="30" height="30" viewBox="0 0 30 30" fill="none" xmlns="http://www.w3.org/2000/svg">
<g clip-path="url(#clip0)">
<path d="M21.3437 4.09498V0.119141H19.4611V4.09498L21.3437 4.09498Z" fill="#4E4E4E"/>
<path fill-rule="evenodd" clip-rule="evenodd" d="M25.9321 6.4397C26.0768 6.08988 25.996 5.68777 25.7273 5.42026C25.4586 5.15275 25.0547 5.07232 24.7033 5.21637L19.6259 7.29774L16.4088 4.09498C16.137 3.8244 15.7273 3.74551 15.3737 3.8957C15.0202 4.04589 14.7939 4.39498 14.8021 4.77755L14.9095 9.80425L10.0522 11.846C9.69131 11.9977 9.46251 12.356 9.47774 12.7457C9.49297 13.1354 9.74904 13.475 10.1207 13.5983L11.9788 14.2149L0.855957 25.2716L5.60549 30L16.8108 18.8613L17.5126 20.9573C17.6365 21.3273 17.9776 21.5822 18.369 21.5974C18.7605 21.6126 19.1204 21.3848 19.2728 21.0255L21.3237 16.1898L26.3729 16.2968C26.7572 16.3049 27.1078 16.0796 27.2587 15.7277C27.4095 15.3757 27.3303 14.9678 27.0585 14.6972L23.8414 11.4945L25.9321 6.4397ZM19.7624 9.26867L23.3311 7.80576L21.8617 11.3585C21.717 11.7084 21.7978 12.1105 22.0665 12.378L24.0708 14.3733L20.725 14.3025C20.3394 14.2943 19.9878 14.5211 19.8378 14.8749L18.5093 18.0073L17.3018 14.4009C17.2081 14.1211 16.9875 13.9015 16.7065 13.8082L13.0839 12.6061L16.2304 11.2835C16.5857 11.1341 16.8135 10.7841 16.8053 10.4002L16.7341 7.06941L18.7384 9.06478C19.0071 9.33229 19.4111 9.41271 19.7624 9.26867ZM15.752 16.8868L15.5142 15.4249L14.0457 15.1882L3.89924 25.2716L5.60549 26.9703L15.752 16.8868Z" fill="#4E4E4E"/>
<path d="M13.0808 7.40818L10.4183 4.75762L9.08713 6.0829L11.7496 8.73346L13.0808 7.40818Z" fill="#4E4E4E"/>
<path d="M26.3929 20.661L23.7305 18.0104L22.3993 19.3357L25.0617 21.9863L26.3929 20.661Z" fill="#4E4E4E"/>
<path d="M31.0521 11.6585H27.0585V9.78427H31.0521L31.0521 11.6585Z" fill="#4E4E4E"/>
</g>
<defs>
<clipPath id="clip0">
<rect width="30" height="30" fill="white" transform="translate(0.856689)"/>
</clipPath>
</defs>
</svg>
