<?xml version="1.0" encoding="utf-8"?>
<!-- Generator: Adobe Illustrator 19.1.0, SVG Export Plug-In . SVG Version: 6.00 Build 0)  -->
<svg version="1.1" id="Layer_1" xmlns="http://www.w3.org/2000/svg" xmlns:xlink="http://www.w3.org/1999/xlink" x="0px" y="0px"
	 viewBox="0 0 500 218.1" style="enable-background:new 0 0 500 218.1;" xml:space="preserve">
<style type="text/css">
	.st0{fill:#48555C;}
	.st1{fill:#B2AD4B;}
	.st2{fill:#E3B23A;}
	.st3{fill:#4E5C5A;}
	.st4{fill:#9E9540;}
	.st5{fill:#6A7B53;}
	.st6{fill:#D45741;}
	.st7{fill:#983428;}
	.st8{fill:#E7703D;}
	.st9{fill:#F2A738;}
	.st10{fill:#262524;}
</style>
<g>
	<g>
		<path class="st0" d="M90.3,137.9l-28.6,39.4c12.6,8.6,27.7,13.7,43.9,14.2l0-48.7C100.1,142.5,94.9,140.7,90.3,137.9z"/>
		<path class="st1" d="M105.5,75.2V26.6c-16.2,0.5-31.3,5.7-43.9,14.3l28.6,39.4C94.7,77.4,99.9,75.7,105.5,75.2z"/>
		<path class="st2" d="M154.5,40.8c-12.6-8.6-27.7-13.7-43.9-14.2v48.7c5.6,0.4,10.8,2.1,15.3,4.9L154.5,40.8z"/>
		<path class="st3" d="M76.8,122l-46.3,15c5.4,14.9,14.9,27.8,27.2,37.3l28.6-39.4C82.1,131.5,78.8,127,76.8,122z"/>
		<path class="st4" d="M86.1,83.2L57.5,43.8c-12.3,9.5-21.8,22.5-27.1,37.4l46.3,15C78.8,91.2,82,86.7,86.1,83.2z"/>
		<path class="st5" d="M74.2,109c0-2.7,0.3-5.4,1-8L28.9,86c-2.1,7.3-3.3,15-3.3,23c0,8,1.2,15.8,3.3,23.1l46.3-15
			C74.5,114.5,74.2,111.8,74.2,109z"/>
		<path class="st6" d="M130.1,134.9l28.6,39.4c12.3-9.5,21.8-22.5,27.1-37.4l-46.3-15C137.5,126.9,134.2,131.4,130.1,134.9z"/>
		<path class="st7" d="M110.7,142.8v48.7c16.3-0.5,31.3-5.7,43.9-14.3L126,137.9C121.5,140.7,116.3,142.4,110.7,142.8z"/>
		<path class="st8" d="M187.3,85.9l-46.3,15c0.6,2.6,1,5.3,1,8.1c0,2.7-0.3,5.4-1,8l46.3,15c2.1-7.3,3.3-15,3.3-23
			C190.6,101,189.5,93.2,187.3,85.9z"/>
		<path class="st9" d="M139.5,96.1l46.3-15c-5.4-14.9-14.9-27.8-27.2-37.3L130,83.1C134.1,86.6,137.4,91.1,139.5,96.1z"/>
	</g>
	<g>
		<path class="st10" d="M241,145c-9.8,0-14.1-6.6-14.1-14.2V72.7h10.4v57.5c0,4,1.4,6,5.6,6h4.6v8.8H241z"/>
		<path class="st10" d="M253.6,83.4v-11h11v11H253.6z M253.9,145V93.6h10.4V145H253.9z"/>
		<path class="st10" d="M290.6,145c-9.6,0-14.1-6.9-14.1-14.3v-28.3h-5.9v-7.9h5.9V78.8h10.4v15.6h9.9v7.9h-9.9v27.8
			c0,3.8,1.8,6,5.7,6h4.3v8.8H290.6z"/>
		<path class="st10" d="M367.3,145v-31.4c0-8-4.6-11.5-10.4-11.5c-5.6,0-10.7,3.6-10.7,11V145h-10.4v-31.4c0-8-4.6-11.5-10.4-11.5
			c-5.8,0-10.7,3.6-10.7,11.5V145h-10.4V93.6h10.2v5.2c3.5-3.8,8.5-5.8,13.7-5.8c6.4,0,11.4,2.5,14.6,7.5c4.2-5.1,9.3-7.5,16.1-7.5
			c5.3,0,9.9,1.7,13,4.7c4,3.9,5.5,8.7,5.5,14.5V145H367.3z"/>
		<path class="st10" d="M416.8,145v-5.2c-3.6,3.9-8.5,5.8-13.7,5.8c-5.3,0-9.6-1.7-12.7-4.7c-4-3.9-5.2-8.7-5.2-14.5V93.6h10.4v31.4
			c0,8,4.6,11.5,10.4,11.5c5.8,0,10.7-3.6,10.7-11.5V93.6H427V145H416.8z"/>
		<path class="st10" d="M453,145.6c-8.4,0-15.5-1.4-21.6-7.4l6.8-6.8c4.2,4.3,9.7,5.4,14.8,5.4c6.3,0,11.3-2.2,11.3-7.1
			c0-3.5-1.9-5.7-6.9-6.1l-8.2-0.7c-9.6-0.8-15.2-5.2-15.2-14.2c0-10.1,8.6-15.7,19.4-15.7c7.7,0,14.3,1.6,19.1,5.8l-6.5,6.6
			c-3.3-2.7-7.8-3.8-12.7-3.8c-6.2,0-9.3,2.7-9.3,6.6c0,3,1.6,5.4,7.1,5.9l8.1,0.7c9.6,0.8,15.3,5.4,15.3,14.5
			C474.4,140.1,465.3,145.6,453,145.6z"/>
	</g>
</g>
</svg>
